<svg width="584" height="353" viewBox="0 0 584 353" fill="none" xmlns="http://www.w3.org/2000/svg">
<g filter="url(#filter0_d_3696_32053)">
<rect x="159" y="41" width="413" height="264.859" rx="11.971" fill="#EDFDF4"/>
<mask id="mask0_3696_32053" style="mask-type:alpha" maskUnits="userSpaceOnUse" x="159" y="41" width="413" height="265">
<rect x="159" y="41" width="413" height="264.859" rx="11.971" fill="#E6F7ED"/>
</mask>
<g mask="url(#mask0_3696_32053)">
<circle cx="144.036" cy="51.4734" r="105.12" stroke="#255C3D" stroke-width="3.74094"/>
<circle cx="240.552" cy="-4.6409" r="105.12" stroke="#255C3D" stroke-width="3.74094"/>
<circle cx="512.145" cy="336.534" r="105.12" stroke="#255C3D" stroke-width="3.74094"/>
<circle cx="608.661" cy="280.42" r="105.12" stroke="#255C3D" stroke-width="3.74094"/>
</g>
</g>
<g filter="url(#filter1_d_3696_32053)">
<rect x="85" y="25" width="461" height="295.641" rx="13.3623" fill="#EDFDF4"/>
<mask id="mask1_3696_32053" style="mask-type:alpha" maskUnits="userSpaceOnUse" x="85" y="25" width="461" height="296">
<rect x="85" y="25" width="461" height="295.641" rx="13.3623" fill="#E6F7ED"/>
</mask>
<g mask="url(#mask1_3696_32053)">
<circle cx="68.2965" cy="36.6913" r="117.338" stroke="#255C3D" stroke-width="4.17572"/>
<circle cx="176.03" cy="-25.9444" r="117.338" stroke="#255C3D" stroke-width="4.17572"/>
<circle cx="479.188" cy="354.882" r="117.338" stroke="#255C3D" stroke-width="4.17572"/>
<circle cx="586.922" cy="292.246" r="117.338" stroke="#255C3D" stroke-width="4.17572"/>
</g>
</g>
<g filter="url(#filter2_d_3696_32053)">
<rect x="14" y="11" width="506" height="324.5" rx="14.6667" fill="#EDFDF4"/>
<mask id="mask2_3696_32053" style="mask-type:alpha" maskUnits="userSpaceOnUse" x="14" y="11" width="506" height="325">
<rect x="14" y="11" width="506" height="324.5" rx="14.6667" fill="#E6F7ED"/>
</mask>
<g mask="url(#mask2_3696_32053)">
<circle cx="-4.334" cy="23.8333" r="128.792" stroke="#255C3D" stroke-width="4.58333"/>
<circle cx="113.916" cy="-44.9167" r="128.792" stroke="#255C3D" stroke-width="4.58333"/>
<circle cx="446.666" cy="373.083" r="128.792" stroke="#255C3D" stroke-width="4.58333"/>
<circle cx="564.916" cy="304.333" r="128.792" stroke="#255C3D" stroke-width="4.58333"/>
<path d="M198.408 172.952H203.992V174.712H198.408V172.952ZM198.584 179H196.504V167.8H204.68V169.544H198.584V179ZM206.5 179V167.128H208.5V179H206.5ZM211.125 179V170.456H213.125V179H211.125ZM212.133 169.048C211.759 169.048 211.45 168.931 211.205 168.696C210.97 168.461 210.853 168.179 210.853 167.848C210.853 167.507 210.97 167.224 211.205 167C211.45 166.765 211.759 166.648 212.133 166.648C212.506 166.648 212.81 166.76 213.045 166.984C213.29 167.197 213.413 167.469 213.413 167.8C213.413 168.152 213.295 168.451 213.061 168.696C212.826 168.931 212.517 169.048 212.133 169.048ZM220.486 179.112C219.792 179.112 219.158 178.952 218.582 178.632C218.016 178.312 217.563 177.832 217.222 177.192C216.891 176.541 216.726 175.72 216.726 174.728C216.726 173.725 216.886 172.904 217.206 172.264C217.536 171.624 217.984 171.149 218.549 170.84C219.115 170.52 219.76 170.36 220.486 170.36C221.328 170.36 222.07 170.541 222.71 170.904C223.36 171.267 223.872 171.773 224.246 172.424C224.63 173.075 224.822 173.843 224.822 174.728C224.822 175.613 224.63 176.387 224.246 177.048C223.872 177.699 223.36 178.205 222.71 178.568C222.07 178.931 221.328 179.112 220.486 179.112ZM215.75 182.104V170.456H217.654V172.472L217.59 174.744L217.75 177.016V182.104H215.75ZM220.262 177.4C220.742 177.4 221.168 177.293 221.542 177.08C221.926 176.867 222.23 176.557 222.454 176.152C222.678 175.747 222.79 175.272 222.79 174.728C222.79 174.173 222.678 173.699 222.454 173.304C222.23 172.899 221.926 172.589 221.542 172.376C221.168 172.163 220.742 172.056 220.262 172.056C219.782 172.056 219.35 172.163 218.966 172.376C218.582 172.589 218.278 172.899 218.054 173.304C217.83 173.699 217.718 174.173 217.718 174.728C217.718 175.272 217.83 175.747 218.054 176.152C218.278 176.557 218.582 176.867 218.966 177.08C219.35 177.293 219.782 177.4 220.262 177.4ZM236.516 179.16C235.663 179.16 234.868 179.021 234.132 178.744C233.407 178.456 232.772 178.056 232.228 177.544C231.695 177.021 231.279 176.408 230.98 175.704C230.681 175 230.532 174.232 230.532 173.4C230.532 172.568 230.681 171.8 230.98 171.096C231.279 170.392 231.7 169.784 232.244 169.272C232.788 168.749 233.423 168.349 234.148 168.072C234.873 167.784 235.668 167.64 236.532 167.64C237.449 167.64 238.287 167.8 239.044 168.12C239.801 168.429 240.441 168.893 240.964 169.512L239.62 170.776C239.215 170.339 238.761 170.013 238.26 169.8C237.759 169.576 237.215 169.464 236.628 169.464C236.041 169.464 235.503 169.56 235.012 169.752C234.532 169.944 234.111 170.216 233.748 170.568C233.396 170.92 233.119 171.336 232.916 171.816C232.724 172.296 232.628 172.824 232.628 173.4C232.628 173.976 232.724 174.504 232.916 174.984C233.119 175.464 233.396 175.88 233.748 176.232C234.111 176.584 234.532 176.856 235.012 177.048C235.503 177.24 236.041 177.336 236.628 177.336C237.215 177.336 237.759 177.229 238.26 177.016C238.761 176.792 239.215 176.456 239.62 176.008L240.964 177.288C240.441 177.896 239.801 178.36 239.044 178.68C238.287 179 237.444 179.16 236.516 179.16ZM247.951 179V177.272L247.839 176.904V173.88C247.839 173.293 247.663 172.84 247.311 172.52C246.959 172.189 246.426 172.024 245.711 172.024C245.231 172.024 244.756 172.099 244.287 172.248C243.828 172.397 243.439 172.605 243.119 172.872L242.335 171.416C242.794 171.064 243.338 170.803 243.967 170.632C244.607 170.451 245.268 170.36 245.951 170.36C247.188 170.36 248.143 170.659 248.815 171.256C249.498 171.843 249.839 172.755 249.839 173.992V179H247.951ZM245.263 179.112C244.623 179.112 244.063 179.005 243.583 178.792C243.103 178.568 242.73 178.264 242.463 177.88C242.207 177.485 242.079 177.043 242.079 176.552C242.079 176.072 242.191 175.64 242.415 175.256C242.65 174.872 243.028 174.568 243.551 174.344C244.074 174.12 244.767 174.008 245.631 174.008H248.111V175.336H245.775C245.092 175.336 244.634 175.448 244.399 175.672C244.164 175.885 244.047 176.152 244.047 176.472C244.047 176.835 244.191 177.123 244.479 177.336C244.767 177.549 245.167 177.656 245.679 177.656C246.17 177.656 246.607 177.544 246.991 177.32C247.386 177.096 247.668 176.765 247.839 176.328L248.175 177.528C247.983 178.029 247.636 178.419 247.135 178.696C246.644 178.973 246.02 179.112 245.263 179.112ZM252.406 179V170.456H254.31V172.808L254.086 172.12C254.342 171.544 254.742 171.107 255.286 170.808C255.84 170.509 256.528 170.36 257.35 170.36V172.264C257.264 172.243 257.184 172.232 257.11 172.232C257.035 172.221 256.96 172.216 256.886 172.216C256.128 172.216 255.526 172.44 255.078 172.888C254.63 173.325 254.406 173.981 254.406 174.856V179H252.406ZM262.584 179.112C261.763 179.112 261.022 178.931 260.36 178.568C259.71 178.195 259.198 177.683 258.824 177.032C258.451 176.381 258.264 175.613 258.264 174.728C258.264 173.843 258.451 173.075 258.824 172.424C259.198 171.773 259.71 171.267 260.36 170.904C261.022 170.541 261.763 170.36 262.584 170.36C263.299 170.36 263.939 170.52 264.504 170.84C265.07 171.149 265.518 171.624 265.848 172.264C266.179 172.904 266.344 173.725 266.344 174.728C266.344 175.72 266.184 176.541 265.864 177.192C265.544 177.832 265.102 178.312 264.536 178.632C263.971 178.952 263.32 179.112 262.584 179.112ZM262.824 177.4C263.304 177.4 263.731 177.293 264.104 177.08C264.488 176.867 264.792 176.557 265.016 176.152C265.251 175.747 265.368 175.272 265.368 174.728C265.368 174.173 265.251 173.699 265.016 173.304C264.792 172.899 264.488 172.589 264.104 172.376C263.731 172.163 263.304 172.056 262.824 172.056C262.344 172.056 261.912 172.163 261.528 172.376C261.155 172.589 260.851 172.899 260.616 173.304C260.392 173.699 260.28 174.173 260.28 174.728C260.28 175.272 260.392 175.747 260.616 176.152C260.851 176.557 261.155 176.867 261.528 177.08C261.912 177.293 262.344 177.4 262.824 177.4ZM265.416 179V176.984L265.496 174.712L265.336 172.44V167.128H267.32V179H265.416ZM272.593 179.112C271.878 179.112 271.19 179.021 270.529 178.84C269.878 178.648 269.361 178.419 268.977 178.152L269.745 176.632C270.129 176.877 270.587 177.08 271.121 177.24C271.654 177.4 272.187 177.48 272.721 177.48C273.35 177.48 273.803 177.395 274.081 177.224C274.369 177.053 274.513 176.824 274.513 176.536C274.513 176.301 274.417 176.125 274.225 176.008C274.033 175.88 273.782 175.784 273.473 175.72C273.163 175.656 272.817 175.597 272.433 175.544C272.059 175.491 271.681 175.421 271.297 175.336C270.923 175.24 270.582 175.107 270.273 174.936C269.963 174.755 269.713 174.515 269.521 174.216C269.329 173.917 269.233 173.523 269.233 173.032C269.233 172.488 269.387 172.019 269.697 171.624C270.006 171.219 270.438 170.909 270.993 170.696C271.558 170.472 272.225 170.36 272.993 170.36C273.569 170.36 274.15 170.424 274.737 170.552C275.323 170.68 275.809 170.861 276.193 171.096L275.425 172.616C275.019 172.371 274.609 172.205 274.193 172.12C273.787 172.024 273.382 171.976 272.977 171.976C272.369 171.976 271.915 172.067 271.617 172.248C271.329 172.429 271.185 172.659 271.185 172.936C271.185 173.192 271.281 173.384 271.473 173.512C271.665 173.64 271.915 173.741 272.225 173.816C272.534 173.891 272.875 173.955 273.249 174.008C273.633 174.051 274.011 174.12 274.385 174.216C274.758 174.312 275.099 174.445 275.409 174.616C275.729 174.776 275.985 175.005 276.177 175.304C276.369 175.603 276.465 175.992 276.465 176.472C276.465 177.005 276.305 177.469 275.985 177.864C275.675 178.259 275.233 178.568 274.657 178.792C274.081 179.005 273.393 179.112 272.593 179.112Z" fill="#4F8667"/>
</g>
</g>
<defs>
<filter id="filter0_d_3696_32053" x="147.777" y="32.7699" width="435.446" height="287.304" filterUnits="userSpaceOnUse" color-interpolation-filters="sRGB">
<feFlood flood-opacity="0" result="BackgroundImageFix"/>
<feColorMatrix in="SourceAlpha" type="matrix" values="0 0 0 0 0 0 0 0 0 0 0 0 0 0 0 0 0 0 127 0" result="hardAlpha"/>
<feOffset dy="2.99275"/>
<feGaussianBlur stdDeviation="5.61141"/>
<feComposite in2="hardAlpha" operator="out"/>
<feColorMatrix type="matrix" values="0 0 0 0 0 0 0 0 0 0 0 0 0 0 0 0 0 0 0.15 0"/>
<feBlend mode="normal" in2="BackgroundImageFix" result="effect1_dropShadow_3696_32053"/>
<feBlend mode="normal" in="SourceGraphic" in2="effect1_dropShadow_3696_32053" result="shape"/>
</filter>
<filter id="filter1_d_3696_32053" x="72.4728" y="15.8134" width="486.054" height="320.696" filterUnits="userSpaceOnUse" color-interpolation-filters="sRGB">
<feFlood flood-opacity="0" result="BackgroundImageFix"/>
<feColorMatrix in="SourceAlpha" type="matrix" values="0 0 0 0 0 0 0 0 0 0 0 0 0 0 0 0 0 0 127 0" result="hardAlpha"/>
<feOffset dy="3.34058"/>
<feGaussianBlur stdDeviation="6.26359"/>
<feComposite in2="hardAlpha" operator="out"/>
<feColorMatrix type="matrix" values="0 0 0 0 0 0 0 0 0 0 0 0 0 0 0 0 0 0 0.15 0"/>
<feBlend mode="normal" in2="BackgroundImageFix" result="effect1_dropShadow_3696_32053"/>
<feBlend mode="normal" in="SourceGraphic" in2="effect1_dropShadow_3696_32053" result="shape"/>
</filter>
<filter id="filter2_d_3696_32053" x="0.25" y="0.916667" width="533.5" height="352" filterUnits="userSpaceOnUse" color-interpolation-filters="sRGB">
<feFlood flood-opacity="0" result="BackgroundImageFix"/>
<feColorMatrix in="SourceAlpha" type="matrix" values="0 0 0 0 0 0 0 0 0 0 0 0 0 0 0 0 0 0 127 0" result="hardAlpha"/>
<feOffset dy="3.66667"/>
<feGaussianBlur stdDeviation="6.875"/>
<feComposite in2="hardAlpha" operator="out"/>
<feColorMatrix type="matrix" values="0 0 0 0 0 0 0 0 0 0 0 0 0 0 0 0 0 0 0.15 0"/>
<feBlend mode="normal" in2="BackgroundImageFix" result="effect1_dropShadow_3696_32053"/>
<feBlend mode="normal" in="SourceGraphic" in2="effect1_dropShadow_3696_32053" result="shape"/>
</filter>
</defs>
</svg>
