<svg width="563" height="353" viewBox="0 0 563 353" fill="none" xmlns="http://www.w3.org/2000/svg">
<g filter="url(#filter0_d_3696_31643)">
<rect x="95" y="27.25" width="455.322" height="292" rx="13.1977" fill="#EDFDF4"/>
<mask id="mask0_3696_31643" style="mask-type:alpha" maskUnits="userSpaceOnUse" x="95" y="27" width="456" height="293">
<rect x="95" y="27.25" width="455.322" height="292" rx="13.1977" fill="#E6F7ED"/>
</mask>
<g mask="url(#mask0_3696_31643)">
<circle cx="78.5027" cy="38.7995" r="115.893" stroke="#255C3D" stroke-width="4.12429"/>
<circle cx="184.909" cy="-23.0657" r="115.893" stroke="#255C3D" stroke-width="4.12429"/>
<circle cx="484.332" cy="353.069" r="115.893" stroke="#255C3D" stroke-width="4.12429"/>
<circle cx="590.739" cy="291.205" r="115.893" stroke="#255C3D" stroke-width="4.12429"/>
<rect x="114.796" y="47.0469" width="415.729" height="252.407" rx="6.59887" fill="white"/>
<path d="M148.911 135.035V121.035H150.911V135.035H148.911ZM166.773 135.035V132.795L166.673 132.375V128.555C166.673 127.742 166.433 127.115 165.953 126.675C165.486 126.222 164.78 125.995 163.833 125.995C163.206 125.995 162.593 126.102 161.993 126.315C161.393 126.515 160.886 126.788 160.473 127.135L159.673 125.695C160.22 125.255 160.873 124.922 161.633 124.695C162.406 124.455 163.213 124.335 164.053 124.335C165.506 124.335 166.626 124.688 167.413 125.395C168.2 126.102 168.593 127.182 168.593 128.635V135.035H166.773ZM163.293 135.155C162.506 135.155 161.813 135.022 161.213 134.755C160.626 134.488 160.173 134.122 159.853 133.655C159.533 133.175 159.373 132.635 159.373 132.035C159.373 131.462 159.506 130.942 159.773 130.475C160.053 130.008 160.5 129.635 161.113 129.355C161.74 129.075 162.58 128.935 163.633 128.935H166.993V130.315H163.713C162.753 130.315 162.106 130.475 161.773 130.795C161.44 131.115 161.273 131.502 161.273 131.955C161.273 132.475 161.48 132.895 161.893 133.215C162.306 133.522 162.88 133.675 163.613 133.675C164.333 133.675 164.96 133.515 165.493 133.195C166.04 132.875 166.433 132.408 166.673 131.795L167.053 133.115C166.8 133.742 166.353 134.242 165.713 134.615C165.073 134.975 164.266 135.155 163.293 135.155ZM185.406 124.335C186.26 124.335 187.013 124.502 187.666 124.835C188.32 125.168 188.826 125.675 189.186 126.355C189.56 127.035 189.746 127.895 189.746 128.935V135.035H187.826V129.155C187.826 128.128 187.586 127.355 187.106 126.835C186.626 126.315 185.953 126.055 185.086 126.055C184.446 126.055 183.886 126.188 183.406 126.455C182.926 126.722 182.553 127.115 182.286 127.635C182.033 128.155 181.906 128.802 181.906 129.575V135.035H179.986V129.155C179.986 128.128 179.746 127.355 179.266 126.835C178.8 126.315 178.126 126.055 177.246 126.055C176.62 126.055 176.066 126.188 175.586 126.455C175.106 126.722 174.733 127.115 174.466 127.635C174.2 128.155 174.066 128.802 174.066 129.575V135.035H172.146V124.435H173.986V127.255L173.686 126.535C174.02 125.842 174.533 125.302 175.226 124.915C175.92 124.528 176.726 124.335 177.646 124.335C178.66 124.335 179.533 124.588 180.266 125.095C181 125.588 181.48 126.342 181.706 127.355L180.926 127.035C181.246 126.222 181.806 125.568 182.606 125.075C183.406 124.582 184.34 124.335 185.406 124.335ZM205.23 135.035V132.795L205.13 132.375V128.555C205.13 127.742 204.89 127.115 204.41 126.675C203.943 126.222 203.237 125.995 202.29 125.995C201.663 125.995 201.05 126.102 200.45 126.315C199.85 126.515 199.343 126.788 198.93 127.135L198.13 125.695C198.677 125.255 199.33 124.922 200.09 124.695C200.863 124.455 201.67 124.335 202.51 124.335C203.963 124.335 205.083 124.688 205.87 125.395C206.657 126.102 207.05 127.182 207.05 128.635V135.035H205.23ZM201.75 135.155C200.963 135.155 200.27 135.022 199.67 134.755C199.083 134.488 198.63 134.122 198.31 133.655C197.99 133.175 197.83 132.635 197.83 132.035C197.83 131.462 197.963 130.942 198.23 130.475C198.51 130.008 198.957 129.635 199.57 129.355C200.197 129.075 201.037 128.935 202.09 128.935H205.45V130.315H202.17C201.21 130.315 200.563 130.475 200.23 130.795C199.897 131.115 199.73 131.502 199.73 131.955C199.73 132.475 199.937 132.895 200.35 133.215C200.763 133.522 201.337 133.675 202.07 133.675C202.79 133.675 203.417 133.515 203.95 133.195C204.497 132.875 204.89 132.408 205.13 131.795L205.51 133.115C205.257 133.742 204.81 134.242 204.17 134.615C203.53 134.975 202.723 135.155 201.75 135.155ZM216.254 135.035V123.495C216.254 122.455 216.554 121.628 217.154 121.015C217.768 120.388 218.634 120.075 219.754 120.075C220.168 120.075 220.561 120.128 220.934 120.235C221.321 120.328 221.648 120.482 221.914 120.695L221.334 122.155C221.134 121.995 220.908 121.875 220.654 121.795C220.401 121.702 220.134 121.655 219.854 121.655C219.294 121.655 218.868 121.815 218.574 122.135C218.281 122.442 218.134 122.902 218.134 123.515V124.935L218.174 125.815V135.035H216.254ZM214.454 126.015V124.435H221.214V126.015H214.454ZM227.409 135.155C226.342 135.155 225.396 134.922 224.569 134.455C223.742 133.988 223.089 133.348 222.609 132.535C222.129 131.708 221.889 130.775 221.889 129.735C221.889 128.682 222.129 127.748 222.609 126.935C223.089 126.122 223.742 125.488 224.569 125.035C225.396 124.568 226.342 124.335 227.409 124.335C228.462 124.335 229.402 124.568 230.229 125.035C231.069 125.488 231.722 126.122 232.189 126.935C232.669 127.735 232.909 128.668 232.909 129.735C232.909 130.788 232.669 131.722 232.189 132.535C231.722 133.348 231.069 133.988 230.229 134.455C229.402 134.922 228.462 135.155 227.409 135.155ZM227.409 133.475C228.089 133.475 228.696 133.322 229.229 133.015C229.776 132.708 230.202 132.275 230.509 131.715C230.816 131.142 230.969 130.482 230.969 129.735C230.969 128.975 230.816 128.322 230.509 127.775C230.202 127.215 229.776 126.782 229.229 126.475C228.696 126.168 228.089 126.015 227.409 126.015C226.729 126.015 226.122 126.168 225.589 126.475C225.056 126.782 224.629 127.215 224.309 127.775C223.989 128.322 223.829 128.975 223.829 129.735C223.829 130.482 223.989 131.142 224.309 131.715C224.629 132.275 225.056 132.708 225.589 133.015C226.122 133.322 226.729 133.475 227.409 133.475ZM235.564 135.035V124.435H237.404V127.315L237.224 126.595C237.518 125.862 238.011 125.302 238.704 124.915C239.398 124.528 240.251 124.335 241.264 124.335V126.195C241.184 126.182 241.104 126.175 241.024 126.175C240.958 126.175 240.891 126.175 240.824 126.175C239.798 126.175 238.984 126.482 238.384 127.095C237.784 127.708 237.484 128.595 237.484 129.755V135.035H235.564ZM248.153 135.155C247.073 135.155 246.106 134.922 245.253 134.455C244.413 133.988 243.753 133.348 243.273 132.535C242.793 131.722 242.553 130.788 242.553 129.735C242.553 128.682 242.793 127.748 243.273 126.935C243.753 126.122 244.413 125.488 245.253 125.035C246.106 124.568 247.073 124.335 248.153 124.335C249.113 124.335 249.966 124.528 250.713 124.915C251.473 125.288 252.06 125.848 252.473 126.595L251.013 127.535C250.666 127.015 250.24 126.635 249.733 126.395C249.24 126.142 248.706 126.015 248.133 126.015C247.44 126.015 246.82 126.168 246.273 126.475C245.726 126.782 245.293 127.215 244.973 127.775C244.653 128.322 244.493 128.975 244.493 129.735C244.493 130.495 244.653 131.155 244.973 131.715C245.293 132.275 245.726 132.708 246.273 133.015C246.82 133.322 247.44 133.475 248.133 133.475C248.706 133.475 249.24 133.355 249.733 133.115C250.24 132.862 250.666 132.475 251.013 131.955L252.473 132.875C252.06 133.608 251.473 134.175 250.713 134.575C249.966 134.962 249.113 135.155 248.153 135.155ZM259.522 135.155C258.389 135.155 257.389 134.922 256.522 134.455C255.669 133.988 255.002 133.348 254.522 132.535C254.056 131.722 253.822 130.788 253.822 129.735C253.822 128.682 254.049 127.748 254.502 126.935C254.969 126.122 255.602 125.488 256.402 125.035C257.216 124.568 258.129 124.335 259.142 124.335C260.169 124.335 261.076 124.562 261.862 125.015C262.649 125.468 263.262 126.108 263.702 126.935C264.156 127.748 264.382 128.702 264.382 129.795C264.382 129.875 264.376 129.968 264.362 130.075C264.362 130.182 264.356 130.282 264.342 130.375H255.322V128.995H263.342L262.562 129.475C262.576 128.795 262.436 128.188 262.142 127.655C261.849 127.122 261.442 126.708 260.922 126.415C260.416 126.108 259.822 125.955 259.142 125.955C258.476 125.955 257.882 126.108 257.362 126.415C256.842 126.708 256.436 127.128 256.142 127.675C255.849 128.208 255.702 128.822 255.702 129.515V129.835C255.702 130.542 255.862 131.175 256.182 131.735C256.516 132.282 256.976 132.708 257.562 133.015C258.149 133.322 258.822 133.475 259.582 133.475C260.209 133.475 260.776 133.368 261.282 133.155C261.802 132.942 262.256 132.622 262.642 132.195L263.702 133.435C263.222 133.995 262.622 134.422 261.902 134.715C261.196 135.008 260.402 135.155 259.522 135.155ZM276.06 135.155C274.993 135.155 274.166 134.868 273.58 134.295C272.993 133.722 272.7 132.902 272.7 131.835V122.115H274.62V131.755C274.62 132.328 274.76 132.768 275.04 133.075C275.333 133.382 275.746 133.535 276.28 133.535C276.88 133.535 277.38 133.368 277.78 133.035L278.38 134.415C278.086 134.668 277.733 134.855 277.32 134.975C276.92 135.095 276.5 135.155 276.06 135.155ZM270.9 126.015V124.435H277.66V126.015H270.9ZM286.361 124.335C287.228 124.335 287.988 124.502 288.641 124.835C289.308 125.168 289.828 125.675 290.201 126.355C290.574 127.035 290.761 127.895 290.761 128.935V135.035H288.841V129.155C288.841 128.128 288.588 127.355 288.081 126.835C287.588 126.315 286.888 126.055 285.981 126.055C285.301 126.055 284.708 126.188 284.201 126.455C283.694 126.722 283.301 127.115 283.021 127.635C282.754 128.155 282.621 128.802 282.621 129.575V135.035H280.701V120.195H282.621V127.295L282.241 126.535C282.588 125.842 283.121 125.302 283.841 124.915C284.561 124.528 285.401 124.335 286.361 124.335ZM300.894 135.035V132.795L300.794 132.375V128.555C300.794 127.742 300.554 127.115 300.074 126.675C299.608 126.222 298.901 125.995 297.954 125.995C297.328 125.995 296.714 126.102 296.114 126.315C295.514 126.515 295.008 126.788 294.594 127.135L293.794 125.695C294.341 125.255 294.994 124.922 295.754 124.695C296.528 124.455 297.334 124.335 298.174 124.335C299.628 124.335 300.748 124.688 301.534 125.395C302.321 126.102 302.714 127.182 302.714 128.635V135.035H300.894ZM297.414 135.155C296.628 135.155 295.934 135.022 295.334 134.755C294.748 134.488 294.294 134.122 293.974 133.655C293.654 133.175 293.494 132.635 293.494 132.035C293.494 131.462 293.628 130.942 293.894 130.475C294.174 130.008 294.621 129.635 295.234 129.355C295.861 129.075 296.701 128.935 297.754 128.935H301.114V130.315H297.834C296.874 130.315 296.228 130.475 295.894 130.795C295.561 131.115 295.394 131.502 295.394 131.955C295.394 132.475 295.601 132.895 296.014 133.215C296.428 133.522 297.001 133.675 297.734 133.675C298.454 133.675 299.081 133.515 299.614 133.195C300.161 132.875 300.554 132.408 300.794 131.795L301.174 133.115C300.921 133.742 300.474 134.242 299.834 134.615C299.194 134.975 298.388 135.155 297.414 135.155ZM309.907 135.155C308.841 135.155 308.014 134.868 307.427 134.295C306.841 133.722 306.547 132.902 306.547 131.835V122.115H308.467V131.755C308.467 132.328 308.607 132.768 308.887 133.075C309.181 133.382 309.594 133.535 310.127 133.535C310.727 133.535 311.227 133.368 311.627 133.035L312.227 134.415C311.934 134.668 311.581 134.855 311.167 134.975C310.767 135.095 310.347 135.155 309.907 135.155ZM304.747 126.015V124.435H311.507V126.015H304.747ZM323.56 135.155C322.493 135.155 321.666 134.868 321.08 134.295C320.493 133.722 320.2 132.902 320.2 131.835V122.115H322.12V131.755C322.12 132.328 322.26 132.768 322.54 133.075C322.833 133.382 323.246 133.535 323.78 133.535C324.38 133.535 324.88 133.368 325.28 133.035L325.88 134.415C325.586 134.668 325.233 134.855 324.82 134.975C324.42 135.095 324 135.155 323.56 135.155ZM318.4 126.015V124.435H325.16V126.015H318.4ZM333.861 124.335C334.728 124.335 335.488 124.502 336.141 124.835C336.808 125.168 337.328 125.675 337.701 126.355C338.074 127.035 338.261 127.895 338.261 128.935V135.035H336.341V129.155C336.341 128.128 336.088 127.355 335.581 126.835C335.088 126.315 334.388 126.055 333.481 126.055C332.801 126.055 332.208 126.188 331.701 126.455C331.194 126.722 330.801 127.115 330.521 127.635C330.254 128.155 330.121 128.802 330.121 129.575V135.035H328.201V120.195H330.121V127.295L329.741 126.535C330.088 125.842 330.621 125.302 331.341 124.915C332.061 124.528 332.901 124.335 333.861 124.335ZM346.534 135.155C345.401 135.155 344.401 134.922 343.534 134.455C342.681 133.988 342.014 133.348 341.534 132.535C341.068 131.722 340.834 130.788 340.834 129.735C340.834 128.682 341.061 127.748 341.514 126.935C341.981 126.122 342.614 125.488 343.414 125.035C344.228 124.568 345.141 124.335 346.154 124.335C347.181 124.335 348.088 124.562 348.874 125.015C349.661 125.468 350.274 126.108 350.714 126.935C351.168 127.748 351.394 128.702 351.394 129.795C351.394 129.875 351.388 129.968 351.374 130.075C351.374 130.182 351.368 130.282 351.354 130.375H342.334V128.995H350.354L349.574 129.475C349.588 128.795 349.448 128.188 349.154 127.655C348.861 127.122 348.454 126.708 347.934 126.415C347.428 126.108 346.834 125.955 346.154 125.955C345.488 125.955 344.894 126.108 344.374 126.415C343.854 126.708 343.448 127.128 343.154 127.675C342.861 128.208 342.714 128.822 342.714 129.515V129.835C342.714 130.542 342.874 131.175 343.194 131.735C343.528 132.282 343.988 132.708 344.574 133.015C345.161 133.322 345.834 133.475 346.594 133.475C347.221 133.475 347.788 133.368 348.294 133.155C348.814 132.942 349.268 132.622 349.654 132.195L350.714 133.435C350.234 133.995 349.634 134.422 348.914 134.715C348.208 135.008 347.414 135.155 346.534 135.155ZM361.671 135.035L357.731 124.435H359.551L363.051 134.035H362.191L365.831 124.435H367.451L371.011 134.035H370.171L373.751 124.435H375.471L371.511 135.035H369.671L366.331 126.275H366.891L363.511 135.035H361.671ZM381.667 135.155C380.6 135.155 379.653 134.922 378.827 134.455C378 133.988 377.347 133.348 376.867 132.535C376.387 131.708 376.147 130.775 376.147 129.735C376.147 128.682 376.387 127.748 376.867 126.935C377.347 126.122 378 125.488 378.827 125.035C379.653 124.568 380.6 124.335 381.667 124.335C382.72 124.335 383.66 124.568 384.487 125.035C385.327 125.488 385.98 126.122 386.447 126.935C386.927 127.735 387.167 128.668 387.167 129.735C387.167 130.788 386.927 131.722 386.447 132.535C385.98 133.348 385.327 133.988 384.487 134.455C383.66 134.922 382.72 135.155 381.667 135.155ZM381.667 133.475C382.347 133.475 382.953 133.322 383.487 133.015C384.033 132.708 384.46 132.275 384.767 131.715C385.073 131.142 385.227 130.482 385.227 129.735C385.227 128.975 385.073 128.322 384.767 127.775C384.46 127.215 384.033 126.782 383.487 126.475C382.953 126.168 382.347 126.015 381.667 126.015C380.987 126.015 380.38 126.168 379.847 126.475C379.313 126.782 378.887 127.215 378.567 127.775C378.247 128.322 378.087 128.975 378.087 129.735C378.087 130.482 378.247 131.142 378.567 131.715C378.887 132.275 379.313 132.708 379.847 133.015C380.38 133.322 380.987 133.475 381.667 133.475ZM389.822 135.035V124.435H391.662V127.315L391.482 126.595C391.775 125.862 392.269 125.302 392.962 124.915C393.655 124.528 394.509 124.335 395.522 124.335V126.195C395.442 126.182 395.362 126.175 395.282 126.175C395.215 126.175 395.149 126.175 395.082 126.175C394.055 126.175 393.242 126.482 392.642 127.095C392.042 127.708 391.742 128.595 391.742 129.755V135.035H389.822ZM397.888 135.035V120.195H399.808V135.035H397.888ZM407.854 135.155C406.828 135.155 405.908 134.928 405.094 134.475C404.294 134.022 403.661 133.388 403.194 132.575C402.728 131.762 402.494 130.815 402.494 129.735C402.494 128.655 402.728 127.715 403.194 126.915C403.661 126.102 404.294 125.468 405.094 125.015C405.908 124.562 406.828 124.335 407.854 124.335C408.748 124.335 409.554 124.535 410.274 124.935C410.994 125.335 411.568 125.935 411.994 126.735C412.434 127.535 412.654 128.535 412.654 129.735C412.654 130.935 412.441 131.935 412.014 132.735C411.601 133.535 411.034 134.142 410.314 134.555C409.594 134.955 408.774 135.155 407.854 135.155ZM408.014 133.475C408.681 133.475 409.281 133.322 409.814 133.015C410.361 132.708 410.788 132.275 411.094 131.715C411.414 131.142 411.574 130.482 411.574 129.735C411.574 128.975 411.414 128.322 411.094 127.775C410.788 127.215 410.361 126.782 409.814 126.475C409.281 126.168 408.681 126.015 408.014 126.015C407.334 126.015 406.728 126.168 406.194 126.475C405.661 126.782 405.234 127.215 404.914 127.775C404.594 128.322 404.434 128.975 404.434 129.735C404.434 130.482 404.594 131.142 404.914 131.715C405.234 132.275 405.661 132.708 406.194 133.015C406.728 133.322 407.334 133.475 408.014 133.475ZM411.634 135.035V132.175L411.754 129.715L411.554 127.255V120.195H413.474V135.035H411.634ZM428.138 124.335C429.005 124.335 429.765 124.502 430.418 124.835C431.085 125.168 431.605 125.675 431.978 126.355C432.352 127.035 432.538 127.895 432.538 128.935V135.035H430.618V129.155C430.618 128.128 430.365 127.355 429.858 126.835C429.365 126.315 428.665 126.055 427.758 126.055C427.078 126.055 426.485 126.188 425.978 126.455C425.472 126.722 425.078 127.115 424.798 127.635C424.532 128.155 424.398 128.802 424.398 129.575V135.035H422.478V124.435H424.318V127.295L424.018 126.535C424.365 125.842 424.898 125.302 425.618 124.915C426.338 124.528 427.178 124.335 428.138 124.335ZM440.812 135.155C439.678 135.155 438.678 134.922 437.812 134.455C436.958 133.988 436.292 133.348 435.812 132.535C435.345 131.722 435.112 130.788 435.112 129.735C435.112 128.682 435.338 127.748 435.792 126.935C436.258 126.122 436.892 125.488 437.692 125.035C438.505 124.568 439.418 124.335 440.432 124.335C441.458 124.335 442.365 124.562 443.152 125.015C443.938 125.468 444.552 126.108 444.992 126.935C445.445 127.748 445.672 128.702 445.672 129.795C445.672 129.875 445.665 129.968 445.652 130.075C445.652 130.182 445.645 130.282 445.632 130.375H436.612V128.995H444.632L443.852 129.475C443.865 128.795 443.725 128.188 443.432 127.655C443.138 127.122 442.732 126.708 442.212 126.415C441.705 126.108 441.112 125.955 440.432 125.955C439.765 125.955 439.172 126.108 438.652 126.415C438.132 126.708 437.725 127.128 437.432 127.675C437.138 128.208 436.992 128.822 436.992 129.515V129.835C436.992 130.542 437.152 131.175 437.472 131.735C437.805 132.282 438.265 132.708 438.852 133.015C439.438 133.322 440.112 133.475 440.872 133.475C441.498 133.475 442.065 133.368 442.572 133.155C443.092 132.942 443.545 132.622 443.932 132.195L444.992 133.435C444.512 133.995 443.912 134.422 443.192 134.715C442.485 135.008 441.692 135.155 440.812 135.155ZM453.058 135.155C451.924 135.155 450.924 134.922 450.058 134.455C449.204 133.988 448.538 133.348 448.058 132.535C447.591 131.722 447.358 130.788 447.358 129.735C447.358 128.682 447.584 127.748 448.038 126.935C448.504 126.122 449.138 125.488 449.938 125.035C450.751 124.568 451.664 124.335 452.678 124.335C453.704 124.335 454.611 124.562 455.398 125.015C456.184 125.468 456.798 126.108 457.238 126.935C457.691 127.748 457.918 128.702 457.918 129.795C457.918 129.875 457.911 129.968 457.898 130.075C457.898 130.182 457.891 130.282 457.878 130.375H448.858V128.995H456.878L456.098 129.475C456.111 128.795 455.971 128.188 455.678 127.655C455.384 127.122 454.978 126.708 454.458 126.415C453.951 126.108 453.358 125.955 452.678 125.955C452.011 125.955 451.418 126.108 450.898 126.415C450.378 126.708 449.971 127.128 449.678 127.675C449.384 128.208 449.238 128.822 449.238 129.515V129.835C449.238 130.542 449.398 131.175 449.718 131.735C450.051 132.282 450.511 132.708 451.098 133.015C451.684 133.322 452.358 133.475 453.118 133.475C453.744 133.475 454.311 133.368 454.818 133.155C455.338 132.942 455.791 132.622 456.178 132.195L457.238 133.435C456.758 133.995 456.158 134.422 455.438 134.715C454.731 135.008 453.938 135.155 453.058 135.155ZM464.964 135.155C463.937 135.155 463.017 134.928 462.204 134.475C461.404 134.022 460.77 133.388 460.304 132.575C459.837 131.762 459.604 130.815 459.604 129.735C459.604 128.655 459.837 127.715 460.304 126.915C460.77 126.102 461.404 125.468 462.204 125.015C463.017 124.562 463.937 124.335 464.964 124.335C465.857 124.335 466.664 124.535 467.384 124.935C468.104 125.335 468.677 125.935 469.104 126.735C469.544 127.535 469.764 128.535 469.764 129.735C469.764 130.935 469.55 131.935 469.124 132.735C468.71 133.535 468.144 134.142 467.424 134.555C466.704 134.955 465.884 135.155 464.964 135.155ZM465.124 133.475C465.79 133.475 466.39 133.322 466.924 133.015C467.47 132.708 467.897 132.275 468.204 131.715C468.524 131.142 468.684 130.482 468.684 129.735C468.684 128.975 468.524 128.322 468.204 127.775C467.897 127.215 467.47 126.782 466.924 126.475C466.39 126.168 465.79 126.015 465.124 126.015C464.444 126.015 463.837 126.168 463.304 126.475C462.77 126.782 462.344 127.215 462.024 127.775C461.704 128.322 461.544 128.975 461.544 129.735C461.544 130.482 461.704 131.142 462.024 131.715C462.344 132.275 462.77 132.708 463.304 133.015C463.837 133.322 464.444 133.475 465.124 133.475ZM468.744 135.035V132.175L468.864 129.715L468.664 127.255V120.195H470.584V135.035H468.744ZM477.257 135.155C476.377 135.155 475.537 135.035 474.737 134.795C473.95 134.555 473.33 134.262 472.877 133.915L473.677 132.395C474.13 132.702 474.69 132.962 475.357 133.175C476.023 133.388 476.703 133.495 477.397 133.495C478.29 133.495 478.93 133.368 479.317 133.115C479.717 132.862 479.917 132.508 479.917 132.055C479.917 131.722 479.797 131.462 479.557 131.275C479.317 131.088 478.997 130.948 478.597 130.855C478.21 130.762 477.777 130.682 477.297 130.615C476.817 130.535 476.337 130.442 475.857 130.335C475.377 130.215 474.937 130.055 474.537 129.855C474.137 129.642 473.817 129.355 473.577 128.995C473.337 128.622 473.217 128.128 473.217 127.515C473.217 126.875 473.397 126.315 473.757 125.835C474.117 125.355 474.623 124.988 475.277 124.735C475.943 124.468 476.73 124.335 477.637 124.335C478.33 124.335 479.03 124.422 479.737 124.595C480.457 124.755 481.043 124.988 481.497 125.295L480.677 126.815C480.197 126.495 479.697 126.275 479.177 126.155C478.657 126.035 478.137 125.975 477.617 125.975C476.777 125.975 476.15 126.115 475.737 126.395C475.323 126.662 475.117 127.008 475.117 127.435C475.117 127.795 475.237 128.075 475.477 128.275C475.73 128.462 476.05 128.608 476.437 128.715C476.837 128.822 477.277 128.915 477.757 128.995C478.237 129.062 478.717 129.155 479.197 129.275C479.677 129.382 480.11 129.535 480.497 129.735C480.897 129.935 481.217 130.215 481.457 130.575C481.71 130.935 481.837 131.415 481.837 132.015C481.837 132.655 481.65 133.208 481.277 133.675C480.903 134.142 480.377 134.508 479.697 134.775C479.017 135.028 478.203 135.155 477.257 135.155ZM484.696 135.155C484.323 135.155 484.003 135.028 483.736 134.775C483.469 134.508 483.336 134.175 483.336 133.775C483.336 133.375 483.469 133.048 483.736 132.795C484.003 132.542 484.323 132.415 484.696 132.415C485.056 132.415 485.363 132.542 485.616 132.795C485.883 133.048 486.016 133.375 486.016 133.775C486.016 134.175 485.883 134.508 485.616 134.775C485.363 135.028 485.056 135.155 484.696 135.155ZM494.418 135.035V121.035H496.418V135.035H494.418ZM266.321 165.155C265.414 165.155 264.594 164.955 263.861 164.555C263.141 164.142 262.568 163.535 262.141 162.735C261.728 161.935 261.521 160.935 261.521 159.735C261.521 158.535 261.734 157.535 262.161 156.735C262.601 155.935 263.181 155.335 263.901 154.935C264.634 154.535 265.441 154.335 266.321 154.335C267.361 154.335 268.281 154.562 269.081 155.015C269.881 155.468 270.514 156.102 270.981 156.915C271.448 157.715 271.681 158.655 271.681 159.735C271.681 160.815 271.448 161.762 270.981 162.575C270.514 163.388 269.881 164.022 269.081 164.475C268.281 164.928 267.361 165.155 266.321 165.155ZM260.701 165.035V150.195H262.621V157.255L262.421 159.715L262.541 162.175V165.035H260.701ZM266.161 163.475C266.841 163.475 267.448 163.322 267.981 163.015C268.528 162.708 268.954 162.275 269.261 161.715C269.581 161.142 269.741 160.482 269.741 159.735C269.741 158.975 269.581 158.322 269.261 157.775C268.954 157.215 268.528 156.782 267.981 156.475C267.448 156.168 266.841 156.015 266.161 156.015C265.494 156.015 264.888 156.168 264.341 156.475C263.808 156.782 263.381 157.215 263.061 157.775C262.754 158.322 262.601 158.975 262.601 159.735C262.601 160.482 262.754 161.142 263.061 161.715C263.381 162.275 263.808 162.708 264.341 163.015C264.888 163.322 265.494 163.475 266.161 163.475ZM279.054 165.155C277.92 165.155 276.92 164.922 276.054 164.455C275.2 163.988 274.534 163.348 274.054 162.535C273.587 161.722 273.354 160.788 273.354 159.735C273.354 158.682 273.58 157.748 274.034 156.935C274.5 156.122 275.134 155.488 275.934 155.035C276.747 154.568 277.66 154.335 278.674 154.335C279.7 154.335 280.607 154.562 281.394 155.015C282.18 155.468 282.794 156.108 283.234 156.935C283.687 157.748 283.914 158.702 283.914 159.795C283.914 159.875 283.907 159.968 283.894 160.075C283.894 160.182 283.887 160.282 283.874 160.375H274.854V158.995H282.874L282.094 159.475C282.107 158.795 281.967 158.188 281.674 157.655C281.38 157.122 280.974 156.708 280.454 156.415C279.947 156.108 279.354 155.955 278.674 155.955C278.007 155.955 277.414 156.108 276.894 156.415C276.374 156.708 275.967 157.128 275.674 157.675C275.38 158.208 275.234 158.822 275.234 159.515V159.835C275.234 160.542 275.394 161.175 275.714 161.735C276.047 162.282 276.507 162.708 277.094 163.015C277.68 163.322 278.354 163.475 279.114 163.475C279.74 163.475 280.307 163.368 280.814 163.155C281.334 162.942 281.787 162.622 282.174 162.195L283.234 163.435C282.754 163.995 282.154 164.422 281.434 164.715C280.727 165.008 279.934 165.155 279.054 165.155ZM286.58 165.035V150.195H288.5V165.035H286.58ZM296.706 165.155C295.639 165.155 294.692 164.922 293.866 164.455C293.039 163.988 292.386 163.348 291.906 162.535C291.426 161.708 291.186 160.775 291.186 159.735C291.186 158.682 291.426 157.748 291.906 156.935C292.386 156.122 293.039 155.488 293.866 155.035C294.692 154.568 295.639 154.335 296.706 154.335C297.759 154.335 298.699 154.568 299.526 155.035C300.366 155.488 301.019 156.122 301.486 156.935C301.966 157.735 302.206 158.668 302.206 159.735C302.206 160.788 301.966 161.722 301.486 162.535C301.019 163.348 300.366 163.988 299.526 164.455C298.699 164.922 297.759 165.155 296.706 165.155ZM296.706 163.475C297.386 163.475 297.992 163.322 298.526 163.015C299.072 162.708 299.499 162.275 299.806 161.715C300.112 161.142 300.266 160.482 300.266 159.735C300.266 158.975 300.112 158.322 299.806 157.775C299.499 157.215 299.072 156.782 298.526 156.475C297.992 156.168 297.386 156.015 296.706 156.015C296.026 156.015 295.419 156.168 294.886 156.475C294.352 156.782 293.926 157.215 293.606 157.775C293.286 158.322 293.126 158.975 293.126 159.735C293.126 160.482 293.286 161.142 293.606 161.715C293.926 162.275 294.352 162.708 294.886 163.015C295.419 163.322 296.026 163.475 296.706 163.475ZM310.521 154.335C311.388 154.335 312.148 154.502 312.801 154.835C313.468 155.168 313.988 155.675 314.361 156.355C314.734 157.035 314.921 157.895 314.921 158.935V165.035H313.001V159.155C313.001 158.128 312.748 157.355 312.241 156.835C311.748 156.315 311.048 156.055 310.141 156.055C309.461 156.055 308.868 156.188 308.361 156.455C307.854 156.722 307.461 157.115 307.181 157.635C306.914 158.155 306.781 158.802 306.781 159.575V165.035H304.861V154.435H306.701V157.295L306.401 156.535C306.748 155.842 307.281 155.302 308.001 154.915C308.721 154.528 309.561 154.335 310.521 154.335ZM323.114 169.035C322.141 169.035 321.194 168.895 320.274 168.615C319.368 168.348 318.628 167.962 318.054 167.455L318.974 165.975C319.468 166.402 320.074 166.735 320.794 166.975C321.514 167.228 322.268 167.355 323.054 167.355C324.308 167.355 325.228 167.062 325.814 166.475C326.401 165.888 326.694 164.995 326.694 163.795V161.555L326.894 159.455L326.794 157.335V154.435H328.614V163.595C328.614 165.462 328.148 166.835 327.214 167.715C326.281 168.595 324.914 169.035 323.114 169.035ZM322.874 164.595C321.848 164.595 320.928 164.382 320.114 163.955C319.314 163.515 318.674 162.908 318.194 162.135C317.728 161.362 317.494 160.468 317.494 159.455C317.494 158.428 317.728 157.535 318.194 156.775C318.674 156.002 319.314 155.402 320.114 154.975C320.928 154.548 321.848 154.335 322.874 154.335C323.781 154.335 324.608 154.522 325.354 154.895C326.101 155.255 326.694 155.815 327.134 156.575C327.588 157.335 327.814 158.295 327.814 159.455C327.814 160.602 327.588 161.555 327.134 162.315C326.694 163.075 326.101 163.648 325.354 164.035C324.608 164.408 323.781 164.595 322.874 164.595ZM323.094 162.915C323.801 162.915 324.428 162.768 324.974 162.475C325.521 162.182 325.948 161.775 326.254 161.255C326.574 160.735 326.734 160.135 326.734 159.455C326.734 158.775 326.574 158.175 326.254 157.655C325.948 157.135 325.521 156.735 324.974 156.455C324.428 156.162 323.801 156.015 323.094 156.015C322.388 156.015 321.754 156.162 321.194 156.455C320.648 156.735 320.214 157.135 319.894 157.655C319.588 158.175 319.434 158.775 319.434 159.455C319.434 160.135 319.588 160.735 319.894 161.255C320.214 161.775 320.648 162.182 321.194 162.475C321.754 162.768 322.388 162.915 323.094 162.915ZM343.314 154.335C344.181 154.335 344.941 154.502 345.594 154.835C346.261 155.168 346.781 155.675 347.154 156.355C347.527 157.035 347.714 157.895 347.714 158.935V165.035H345.794V159.155C345.794 158.128 345.541 157.355 345.034 156.835C344.541 156.315 343.841 156.055 342.934 156.055C342.254 156.055 341.661 156.188 341.154 156.455C340.647 156.722 340.254 157.115 339.974 157.635C339.707 158.155 339.574 158.802 339.574 159.575V165.035H337.654V150.195H339.574V157.295L339.194 156.535C339.541 155.842 340.074 155.302 340.794 154.915C341.514 154.528 342.354 154.335 343.314 154.335ZM355.987 165.155C354.854 165.155 353.854 164.922 352.987 164.455C352.134 163.988 351.467 163.348 350.987 162.535C350.521 161.722 350.287 160.788 350.287 159.735C350.287 158.682 350.514 157.748 350.967 156.935C351.434 156.122 352.067 155.488 352.867 155.035C353.681 154.568 354.594 154.335 355.607 154.335C356.634 154.335 357.541 154.562 358.327 155.015C359.114 155.468 359.727 156.108 360.167 156.935C360.621 157.748 360.847 158.702 360.847 159.795C360.847 159.875 360.841 159.968 360.827 160.075C360.827 160.182 360.821 160.282 360.807 160.375H351.787V158.995H359.807L359.027 159.475C359.041 158.795 358.901 158.188 358.607 157.655C358.314 157.122 357.907 156.708 357.387 156.415C356.881 156.108 356.287 155.955 355.607 155.955C354.941 155.955 354.347 156.108 353.827 156.415C353.307 156.708 352.901 157.128 352.607 157.675C352.314 158.208 352.167 158.822 352.167 159.515V159.835C352.167 160.542 352.327 161.175 352.647 161.735C352.981 162.282 353.441 162.708 354.027 163.015C354.614 163.322 355.287 163.475 356.047 163.475C356.674 163.475 357.241 163.368 357.747 163.155C358.267 162.942 358.721 162.622 359.107 162.195L360.167 163.435C359.687 163.995 359.087 164.422 358.367 164.715C357.661 165.008 356.867 165.155 355.987 165.155ZM363.513 165.035V154.435H365.353V157.315L365.173 156.595C365.467 155.862 365.96 155.302 366.653 154.915C367.347 154.528 368.2 154.335 369.213 154.335V156.195C369.133 156.182 369.053 156.175 368.973 156.175C368.907 156.175 368.84 156.175 368.773 156.175C367.747 156.175 366.933 156.482 366.333 157.095C365.733 157.708 365.433 158.595 365.433 159.755V165.035H363.513ZM376.202 165.155C375.069 165.155 374.069 164.922 373.202 164.455C372.349 163.988 371.682 163.348 371.202 162.535C370.736 161.722 370.502 160.788 370.502 159.735C370.502 158.682 370.729 157.748 371.182 156.935C371.649 156.122 372.282 155.488 373.082 155.035C373.896 154.568 374.809 154.335 375.822 154.335C376.849 154.335 377.756 154.562 378.542 155.015C379.329 155.468 379.942 156.108 380.382 156.935C380.836 157.748 381.062 158.702 381.062 159.795C381.062 159.875 381.056 159.968 381.042 160.075C381.042 160.182 381.036 160.282 381.022 160.375H372.002V158.995H380.022L379.242 159.475C379.256 158.795 379.116 158.188 378.822 157.655C378.529 157.122 378.122 156.708 377.602 156.415C377.096 156.108 376.502 155.955 375.822 155.955C375.156 155.955 374.562 156.108 374.042 156.415C373.522 156.708 373.116 157.128 372.822 157.675C372.529 158.208 372.382 158.822 372.382 159.515V159.835C372.382 160.542 372.542 161.175 372.862 161.735C373.196 162.282 373.656 162.708 374.242 163.015C374.829 163.322 375.502 163.475 376.262 163.475C376.889 163.475 377.456 163.368 377.962 163.155C378.482 162.942 378.936 162.622 379.322 162.195L380.382 163.435C379.902 163.995 379.302 164.422 378.582 164.715C377.876 165.008 377.082 165.155 376.202 165.155ZM384.188 165.155C383.815 165.155 383.495 165.028 383.228 164.775C382.962 164.508 382.828 164.175 382.828 163.775C382.828 163.375 382.962 163.048 383.228 162.795C383.495 162.542 383.815 162.415 384.188 162.415C384.548 162.415 384.855 162.542 385.108 162.795C385.375 163.048 385.508 163.375 385.508 163.775C385.508 164.175 385.375 164.508 385.108 164.775C384.855 165.028 384.548 165.155 384.188 165.155Z" fill="#2F3431"/>
<path d="M293.773 214.902C293.051 214.902 292.361 214.801 291.701 214.599C291.041 214.388 290.518 214.119 290.13 213.794L290.724 212.461C291.094 212.751 291.551 212.993 292.097 213.187C292.642 213.38 293.201 213.477 293.773 213.477C294.257 213.477 294.648 213.424 294.948 213.319C295.247 213.213 295.467 213.072 295.607 212.896C295.748 212.712 295.819 212.505 295.819 212.276C295.819 211.995 295.717 211.77 295.515 211.603C295.313 211.427 295.049 211.291 294.723 211.194C294.406 211.088 294.05 210.992 293.654 210.904C293.267 210.816 292.876 210.714 292.48 210.6C292.092 210.477 291.736 210.323 291.411 210.138C291.094 209.945 290.834 209.689 290.632 209.373C290.43 209.056 290.328 208.651 290.328 208.158C290.328 207.657 290.46 207.199 290.724 206.786C290.997 206.364 291.406 206.029 291.952 205.783C292.506 205.528 293.205 205.4 294.05 205.4C294.604 205.4 295.154 205.471 295.7 205.611C296.245 205.752 296.72 205.954 297.125 206.218L296.584 207.551C296.171 207.305 295.744 207.125 295.304 207.01C294.864 206.887 294.442 206.825 294.037 206.825C293.562 206.825 293.175 206.883 292.876 206.997C292.585 207.111 292.37 207.261 292.229 207.446C292.097 207.631 292.031 207.842 292.031 208.079C292.031 208.361 292.128 208.59 292.321 208.766C292.524 208.933 292.783 209.065 293.1 209.161C293.425 209.258 293.786 209.355 294.182 209.452C294.578 209.54 294.97 209.641 295.357 209.755C295.753 209.87 296.109 210.019 296.426 210.204C296.751 210.389 297.011 210.64 297.204 210.956C297.407 211.273 297.508 211.673 297.508 212.157C297.508 212.65 297.372 213.108 297.099 213.53C296.835 213.943 296.426 214.278 295.871 214.533C295.317 214.779 294.618 214.902 293.773 214.902ZM303.393 214.771V213.345L303.3 213.042V210.547C303.3 210.063 303.155 209.689 302.865 209.425C302.575 209.153 302.135 209.016 301.545 209.016C301.149 209.016 300.758 209.078 300.371 209.201C299.992 209.324 299.671 209.496 299.407 209.716L298.76 208.515C299.139 208.224 299.588 208.009 300.107 207.868C300.635 207.719 301.18 207.644 301.743 207.644C302.764 207.644 303.551 207.89 304.106 208.383C304.669 208.867 304.95 209.619 304.95 210.64V214.771H303.393ZM301.176 214.863C300.648 214.863 300.186 214.775 299.79 214.599C299.394 214.414 299.086 214.163 298.866 213.847C298.655 213.521 298.549 213.156 298.549 212.751C298.549 212.355 298.642 211.999 298.826 211.682C299.02 211.365 299.332 211.115 299.763 210.93C300.195 210.745 300.767 210.653 301.479 210.653H303.525V211.748H301.598C301.035 211.748 300.657 211.841 300.463 212.025C300.269 212.201 300.173 212.421 300.173 212.685C300.173 212.984 300.291 213.222 300.529 213.398C300.767 213.574 301.096 213.662 301.519 213.662C301.924 213.662 302.284 213.57 302.601 213.385C302.927 213.2 303.16 212.927 303.3 212.566L303.578 213.556C303.419 213.97 303.133 214.291 302.72 214.52C302.315 214.749 301.8 214.863 301.176 214.863ZM308.813 214.771L305.79 207.723H307.506L310.106 213.939H309.261L311.954 207.723H313.537L310.515 214.771H308.813ZM317.688 214.863C316.905 214.863 316.218 214.709 315.629 214.401C315.048 214.084 314.595 213.653 314.27 213.108C313.953 212.562 313.794 211.942 313.794 211.247C313.794 210.543 313.948 209.923 314.256 209.386C314.573 208.84 315.004 208.414 315.55 208.106C316.104 207.798 316.733 207.644 317.437 207.644C318.123 207.644 318.735 207.793 319.272 208.092C319.808 208.392 320.231 208.814 320.538 209.359C320.846 209.905 321 210.547 321 211.286C321 211.357 320.996 211.436 320.987 211.524C320.987 211.612 320.983 211.695 320.974 211.775H315.101V210.679H320.103L319.456 211.022C319.465 210.618 319.381 210.261 319.206 209.953C319.03 209.645 318.788 209.403 318.48 209.227C318.18 209.051 317.833 208.964 317.437 208.964C317.032 208.964 316.676 209.051 316.368 209.227C316.069 209.403 315.831 209.65 315.655 209.967C315.488 210.274 315.405 210.64 315.405 211.062V211.326C315.405 211.748 315.501 212.122 315.695 212.448C315.888 212.773 316.161 213.024 316.513 213.2C316.865 213.376 317.27 213.464 317.727 213.464C318.123 213.464 318.48 213.402 318.796 213.279C319.113 213.156 319.395 212.962 319.641 212.698L320.525 213.715C320.209 214.084 319.808 214.37 319.324 214.573C318.849 214.766 318.304 214.863 317.688 214.863ZM330.667 214.902C329.963 214.902 329.308 214.788 328.7 214.559C328.102 214.322 327.579 213.992 327.13 213.57C326.69 213.138 326.347 212.632 326.101 212.052C325.854 211.471 325.731 210.838 325.731 210.151C325.731 209.465 325.854 208.832 326.101 208.251C326.347 207.67 326.694 207.169 327.143 206.746C327.592 206.315 328.115 205.985 328.714 205.756C329.312 205.519 329.967 205.4 330.68 205.4C331.437 205.4 332.127 205.532 332.752 205.796C333.377 206.051 333.905 206.434 334.336 206.944L333.227 207.987C332.893 207.626 332.519 207.358 332.105 207.182C331.692 206.997 331.243 206.905 330.759 206.905C330.275 206.905 329.831 206.984 329.426 207.142C329.03 207.301 328.683 207.525 328.384 207.815C328.093 208.106 327.865 208.449 327.697 208.845C327.539 209.241 327.46 209.676 327.46 210.151C327.46 210.626 327.539 211.062 327.697 211.458C327.865 211.854 328.093 212.197 328.384 212.487C328.683 212.778 329.03 213.002 329.426 213.16C329.831 213.319 330.275 213.398 330.759 213.398C331.243 213.398 331.692 213.31 332.105 213.134C332.519 212.949 332.893 212.672 333.227 212.303L334.336 213.358C333.905 213.86 333.377 214.243 332.752 214.507C332.127 214.771 331.432 214.902 330.667 214.902ZM340.099 214.771V213.345L340.007 213.042V210.547C340.007 210.063 339.862 209.689 339.571 209.425C339.281 209.153 338.841 209.016 338.251 209.016C337.855 209.016 337.464 209.078 337.077 209.201C336.698 209.324 336.377 209.496 336.113 209.716L335.467 208.515C335.845 208.224 336.294 208.009 336.813 207.868C337.341 207.719 337.886 207.644 338.449 207.644C339.47 207.644 340.257 207.89 340.812 208.383C341.375 208.867 341.656 209.619 341.656 210.64V214.771H340.099ZM337.882 214.863C337.354 214.863 336.892 214.775 336.496 214.599C336.1 214.414 335.792 214.163 335.572 213.847C335.361 213.521 335.256 213.156 335.256 212.751C335.256 212.355 335.348 211.999 335.533 211.682C335.726 211.365 336.039 211.115 336.47 210.93C336.901 210.745 337.473 210.653 338.185 210.653H340.231V211.748H338.304C337.741 211.748 337.363 211.841 337.169 212.025C336.976 212.201 336.879 212.421 336.879 212.685C336.879 212.984 336.998 213.222 337.235 213.398C337.473 213.574 337.803 213.662 338.225 213.662C338.63 213.662 338.99 213.57 339.307 213.385C339.633 213.2 339.866 212.927 340.007 212.566L340.284 213.556C340.125 213.97 339.84 214.291 339.426 214.52C339.021 214.749 338.507 214.863 337.882 214.863ZM343.774 214.771V207.723H345.344V209.663L345.159 209.095C345.371 208.62 345.7 208.26 346.149 208.013C346.607 207.767 347.174 207.644 347.852 207.644V209.214C347.781 209.197 347.715 209.188 347.654 209.188C347.592 209.179 347.531 209.175 347.469 209.175C346.844 209.175 346.347 209.359 345.978 209.729C345.608 210.09 345.423 210.631 345.423 211.352V214.771H343.774ZM352.169 214.863C351.492 214.863 350.88 214.713 350.335 214.414C349.798 214.106 349.376 213.684 349.068 213.147C348.76 212.61 348.606 211.977 348.606 211.247C348.606 210.516 348.76 209.883 349.068 209.346C349.376 208.81 349.798 208.392 350.335 208.092C350.88 207.793 351.492 207.644 352.169 207.644C352.759 207.644 353.287 207.776 353.753 208.04C354.219 208.295 354.589 208.686 354.862 209.214C355.135 209.742 355.271 210.42 355.271 211.247C355.271 212.065 355.139 212.742 354.875 213.279C354.611 213.807 354.246 214.203 353.78 214.467C353.313 214.731 352.777 214.863 352.169 214.863ZM352.367 213.451C352.763 213.451 353.115 213.363 353.423 213.187C353.74 213.011 353.991 212.756 354.176 212.421C354.369 212.087 354.466 211.695 354.466 211.247C354.466 210.789 354.369 210.398 354.176 210.072C353.991 209.738 353.74 209.483 353.423 209.307C353.115 209.131 352.763 209.043 352.367 209.043C351.971 209.043 351.615 209.131 351.298 209.307C350.99 209.483 350.74 209.738 350.546 210.072C350.361 210.398 350.269 210.789 350.269 211.247C350.269 211.695 350.361 212.087 350.546 212.421C350.74 212.756 350.99 213.011 351.298 213.187C351.615 213.363 351.971 213.451 352.367 213.451ZM354.505 214.771V213.108L354.571 211.234L354.439 209.359V204.978H356.076V214.771H354.505Z" fill="#4F8667"/>
</g>
</g>
<g filter="url(#filter1_d_3696_31643)">
<rect x="14" y="11" width="506" height="324.5" rx="14.6667" fill="#EDFDF4"/>
<mask id="mask1_3696_31643" style="mask-type:alpha" maskUnits="userSpaceOnUse" x="14" y="11" width="506" height="325">
<rect x="14" y="11" width="506" height="324.5" rx="14.6667" fill="#E6F7ED"/>
</mask>
<g mask="url(#mask1_3696_31643)">
<circle cx="-4.33403" cy="23.8333" r="128.792" stroke="#255C3D" stroke-width="4.58333"/>
<circle cx="113.916" cy="-44.9167" r="128.792" stroke="#255C3D" stroke-width="4.58333"/>
<circle cx="446.666" cy="373.083" r="128.792" stroke="#255C3D" stroke-width="4.58333"/>
<circle cx="564.916" cy="304.333" r="128.792" stroke="#255C3D" stroke-width="4.58333"/>
<rect x="36" y="33" width="462" height="280.5" rx="7.33333" fill="white"/>
</g>
</g>
<defs>
<filter id="filter0_d_3696_31643" x="82.6271" y="18.1766" width="480.068" height="316.746" filterUnits="userSpaceOnUse" color-interpolation-filters="sRGB">
<feFlood flood-opacity="0" result="BackgroundImageFix"/>
<feColorMatrix in="SourceAlpha" type="matrix" values="0 0 0 0 0 0 0 0 0 0 0 0 0 0 0 0 0 0 127 0" result="hardAlpha"/>
<feOffset dy="3.29943"/>
<feGaussianBlur stdDeviation="6.18644"/>
<feComposite in2="hardAlpha" operator="out"/>
<feColorMatrix type="matrix" values="0 0 0 0 0 0 0 0 0 0 0 0 0 0 0 0 0 0 0.15 0"/>
<feBlend mode="normal" in2="BackgroundImageFix" result="effect1_dropShadow_3696_31643"/>
<feBlend mode="normal" in="SourceGraphic" in2="effect1_dropShadow_3696_31643" result="shape"/>
</filter>
<filter id="filter1_d_3696_31643" x="0.25" y="0.916667" width="533.5" height="352" filterUnits="userSpaceOnUse" color-interpolation-filters="sRGB">
<feFlood flood-opacity="0" result="BackgroundImageFix"/>
<feColorMatrix in="SourceAlpha" type="matrix" values="0 0 0 0 0 0 0 0 0 0 0 0 0 0 0 0 0 0 127 0" result="hardAlpha"/>
<feOffset dy="3.66667"/>
<feGaussianBlur stdDeviation="6.875"/>
<feComposite in2="hardAlpha" operator="out"/>
<feColorMatrix type="matrix" values="0 0 0 0 0 0 0 0 0 0 0 0 0 0 0 0 0 0 0.15 0"/>
<feBlend mode="normal" in2="BackgroundImageFix" result="effect1_dropShadow_3696_31643"/>
<feBlend mode="normal" in="SourceGraphic" in2="effect1_dropShadow_3696_31643" result="shape"/>
</filter>
</defs>
</svg>
